<svg width="794" height="66" viewBox="0 0 794 66" fill="none" xmlns="http://www.w3.org/2000/svg">
<path d="M52.0375 9.896L49.8536 11.9529V11.9529L52.0375 9.896ZM52.0375 56.744L54.2214 58.8009L54.2273 58.7946L54.2332 58.7883L52.0375 56.744ZM0.2935 65H-2.7065V68H0.2935V65ZM0.2935 1.64V-1.36H-2.7065V1.64H0.2935ZM36.8695 46.472L39.3744 48.1229L39.3829 48.1101L39.3912 48.0971L36.8695 46.472ZM36.8695 20.264L34.3478 21.8891L34.3561 21.9021L34.3646 21.9149L36.8695 20.264ZM19.8775 15.944V12.944H16.8775V15.944H19.8775ZM19.8775 50.696H16.8775V53.696H19.8775V50.696ZM29.3815 4.64C38.7453 4.64 45.3986 7.22285 49.8536 11.9529L54.2214 7.83912C48.3084 1.56114 39.8577 -1.36 29.3815 -1.36V4.64ZM49.8536 11.9529C54.3569 16.7341 56.8135 23.7088 56.8135 33.32H62.8135C62.8135 22.7072 60.0861 14.0659 54.2214 7.83911L49.8536 11.9529ZM56.8135 33.32C56.8135 42.8589 54.3608 49.846 49.8418 54.6997L54.2332 58.7883C60.0822 52.506 62.8135 43.8771 62.8135 33.32H56.8135ZM49.8536 54.6871C45.3986 59.4171 38.7453 62 29.3815 62V68C39.8577 68 48.3084 65.0789 54.2214 58.8009L49.8536 54.6871ZM29.3815 62H0.2935V68H29.3815V62ZM3.2935 65V1.64H-2.7065V65H3.2935ZM0.2935 4.64H29.3815V-1.36H0.2935V4.64ZM26.9815 53.696C32.282 53.696 36.7567 52.0945 39.3744 48.1229L34.3646 44.8211C33.2703 46.4815 31.153 47.696 26.9815 47.696V53.696ZM39.3912 48.0971C41.7115 44.4967 42.6535 39.4184 42.6535 33.32H36.6535C36.6535 38.9976 35.7395 42.6873 34.3478 44.8469L39.3912 48.0971ZM42.6535 33.32C42.6535 27.2301 41.7146 22.1638 39.3744 18.6131L34.3646 21.9149C35.7364 23.9962 36.6535 27.6339 36.6535 33.32H42.6535ZM39.3912 18.6389C36.785 14.5948 32.3082 12.944 26.9815 12.944V18.944C31.1268 18.944 33.242 20.1732 34.3478 21.8891L39.3912 18.6389ZM26.9815 12.944H19.8775V18.944H26.9815V12.944ZM16.8775 15.944V50.696H22.8775V15.944H16.8775ZM19.8775 53.696H26.9815V47.696H19.8775V53.696ZM69.106 65H66.106V68H69.106V65ZM69.106 1.64V-1.36H66.106V1.64H69.106ZM120.178 1.64H123.178V-1.36H120.178V1.64ZM120.178 16.328V19.328H123.178V16.328H120.178ZM88.69 16.328V13.328H85.69V16.328H88.69ZM88.69 26.6H85.69V29.6H88.69V26.6ZM113.842 26.6H116.842V23.6H113.842V26.6ZM113.842 40.232V43.232H116.842V40.232H113.842ZM88.69 40.232V37.232H85.69V40.232H88.69ZM88.69 50.312H85.69V53.312H88.69V50.312ZM121.426 50.312H124.426V47.312H121.426V50.312ZM121.426 65V68H124.426V65H121.426ZM72.106 65V1.64H66.106V65H72.106ZM69.106 4.64H120.178V-1.36H69.106V4.64ZM117.178 1.64V16.328H123.178V1.64H117.178ZM120.178 13.328H88.69V19.328H120.178V13.328ZM85.69 16.328V26.6H91.69V16.328H85.69ZM88.69 29.6H113.842V23.6H88.69V29.6ZM110.842 26.6V40.232H116.842V26.6H110.842ZM113.842 37.232H88.69V43.232H113.842V37.232ZM85.69 40.232V50.312H91.69V40.232H85.69ZM88.69 53.312H121.426V47.312H88.69V53.312ZM118.426 50.312V65H124.426V50.312H118.426ZM121.426 62H69.106V68H121.426V62ZM186.994 46.184L189.907 46.9022L190.61 44.0507L187.774 43.2872L186.994 46.184ZM181.138 57.608L178.946 55.5593L178.934 55.5722L178.923 55.5852L181.138 57.608ZM171.25 64.04L172.199 66.886L172.213 66.8814L172.227 66.8766L171.25 64.04ZM141.49 62.12L140.036 64.7441L140.057 64.7558L140.078 64.7671L141.49 62.12ZM130.546 50.888L127.891 52.2852L130.546 50.888ZM130.546 15.752L133.201 17.1492L130.546 15.752ZM141.49 4.616L142.917 7.25512L142.923 7.25175L142.929 7.24834L141.49 4.616ZM171.058 2.6L170.109 5.44605L170.116 5.44838L170.123 5.45069L171.058 2.6ZM180.946 8.552L178.825 10.6733L180.946 8.552ZM186.418 19.016L187.535 21.8003L189.903 20.8504L189.346 18.3606L186.418 19.016ZM169.426 25.832L166.469 26.3402L167.098 29.9982L170.543 28.6163L169.426 25.832ZM165.682 17.672L163.84 20.0401L163.861 20.0562L163.882 20.072L165.682 17.672ZM152.338 17.672L154.082 20.1132L154.09 20.1075L154.098 20.1018L152.338 17.672ZM148.21 23.528L145.393 22.4973L145.385 22.5171L145.378 22.5369L148.21 23.528ZM148.114 43.112L145.254 44.0187L145.264 44.0502L145.275 44.0814L148.114 43.112ZM152.146 49.064L150.346 51.464L150.394 51.4998L150.443 51.5336L152.146 49.064ZM165.97 48.68L167.922 50.9578L165.97 48.68ZM169.522 41.48L170.302 38.5832L167.137 37.7311L166.568 40.9586L169.522 41.48ZM184.081 45.4658C183.028 49.7365 181.286 53.0564 178.946 55.5593L183.33 59.6567C186.494 56.2716 188.656 51.9755 189.907 46.9022L184.081 45.4658ZM178.923 55.5852C176.585 58.1451 173.721 60.0167 170.273 61.2034L172.227 66.8766C176.587 65.3753 180.315 62.9589 183.353 59.6308L178.923 55.5852ZM170.301 61.1939C166.81 62.3576 162.88 62.96 158.482 62.96V68.96C163.428 68.96 168.01 68.2824 172.199 66.886L170.301 61.1939ZM158.482 62.96C152.348 62.96 147.188 61.7591 142.902 59.4729L140.078 64.7671C145.392 67.6009 151.56 68.96 158.482 68.96V62.96ZM142.944 59.4959C138.727 57.1597 135.493 53.8459 133.201 49.4908L127.891 52.2852C130.719 57.6581 134.781 61.8324 140.036 64.7441L142.944 59.4959ZM133.201 49.4908C130.917 45.1508 129.706 39.7987 129.706 33.32H123.706C123.706 40.5373 125.055 46.8972 127.891 52.2852L133.201 49.4908ZM129.706 33.32C129.706 26.8413 130.917 21.4892 133.201 17.1492L127.891 14.3548C125.055 19.7428 123.706 26.1027 123.706 33.32H129.706ZM133.201 17.1492C135.49 12.8001 138.716 9.52589 142.917 7.25512L140.063 1.97688C134.792 4.82611 130.722 8.97589 127.891 14.3548L133.201 17.1492ZM142.929 7.24834C147.214 4.90593 152.333 3.68 158.386 3.68V-2.32C151.511 -2.32 145.366 -0.921936 140.051 1.98366L142.929 7.24834ZM158.386 3.68C162.715 3.68 166.614 4.28104 170.109 5.44605L172.007 -0.246054C167.822 -1.64104 163.273 -2.32 158.386 -2.32V3.68ZM170.123 5.45069C173.617 6.59613 176.496 8.34459 178.825 10.6733L183.067 6.43068C180.02 3.3834 176.307 1.16386 171.993 -0.250692L170.123 5.45069ZM178.825 10.6733C181.051 12.8994 182.635 15.8502 183.49 19.6714L189.346 18.3606C188.281 13.6058 186.217 9.58058 183.067 6.43068L178.825 10.6733ZM185.301 16.2317L168.309 23.0477L170.543 28.6163L187.535 21.8003L185.301 16.2317ZM172.383 25.3238C171.648 21.0495 170.234 17.3357 167.482 15.272L163.882 20.072C164.714 20.6963 165.796 22.4225 166.469 26.3402L172.383 25.3238ZM167.524 15.3039C165.146 13.4547 162.207 12.656 158.962 12.656V18.656C161.221 18.656 162.762 19.2013 163.84 20.0401L167.524 15.3039ZM158.962 12.656C155.848 12.656 153.006 13.4846 150.578 15.2422L154.098 20.1018C155.382 19.1714 156.956 18.656 158.962 18.656V12.656ZM150.594 15.2308C148.193 16.9459 146.505 19.4582 145.393 22.4973L151.027 24.5587C151.836 22.3498 152.899 20.9581 154.082 20.1132L150.594 15.2308ZM145.378 22.5369C144.332 25.5263 143.866 29.1562 143.866 33.32H149.866C149.866 29.5477 150.296 26.6497 151.042 24.5191L145.378 22.5369ZM143.866 33.32C143.866 37.414 144.299 41.0072 145.254 44.0187L150.974 42.2053C150.265 39.9688 149.866 37.034 149.866 33.32H143.866ZM145.275 44.0814C146.319 47.1392 147.968 49.6805 150.346 51.464L153.946 46.664C152.74 45.7595 151.701 44.3328 150.953 42.1426L145.275 44.0814ZM150.443 51.5336C152.932 53.2507 155.978 53.984 159.346 53.984V47.984C156.826 47.984 155.072 47.4373 153.849 46.5944L150.443 51.5336ZM159.346 53.984C162.6 53.984 165.525 53.0127 167.922 50.9578L164.018 46.4022C162.831 47.4193 161.34 47.984 159.346 47.984V53.984ZM167.922 50.9578C170.419 48.8177 171.828 45.6766 172.476 42.0014L166.568 40.9586C166.064 43.8114 165.105 45.4703 164.018 46.4022L167.922 50.9578ZM168.742 44.3768L186.214 49.0808L187.774 43.2872L170.302 38.5832L168.742 44.3768ZM194.262 65H191.262V68H194.262V65ZM194.262 1.64V-1.36H191.262V1.64H194.262ZM245.334 1.64H248.334V-1.36H245.334V1.64ZM245.334 16.328V19.328H248.334V16.328H245.334ZM213.846 16.328V13.328H210.846V16.328H213.846ZM213.846 26.6H210.846V29.6H213.846V26.6ZM238.998 26.6H241.998V23.6H238.998V26.6ZM238.998 40.232V43.232H241.998V40.232H238.998ZM213.846 40.232V37.232H210.846V40.232H213.846ZM213.846 50.312H210.846V53.312H213.846V50.312ZM246.582 50.312H249.582V47.312H246.582V50.312ZM246.582 65V68H249.582V65H246.582ZM197.262 65V1.64H191.262V65H197.262ZM194.262 4.64H245.334V-1.36H194.262V4.64ZM242.334 1.64V16.328H248.334V1.64H242.334ZM245.334 13.328H213.846V19.328H245.334V13.328ZM210.846 16.328V26.6H216.846V16.328H210.846ZM213.846 29.6H238.998V23.6H213.846V29.6ZM235.998 26.6V40.232H241.998V26.6H235.998ZM238.998 37.232H213.846V43.232H238.998V37.232ZM210.846 40.232V50.312H216.846V40.232H210.846ZM213.846 53.312H246.582V47.312H213.846V53.312ZM243.582 50.312V65H249.582V50.312H243.582ZM246.582 62H194.262V68H246.582V62ZM314.255 1.64H317.255V-1.36H314.255V1.64ZM314.255 65V68H317.255V65H314.255ZM292.751 65L290.123 66.4467L290.978 68H292.751V65ZM275.471 33.608L272.758 34.8883L272.798 34.9728L272.843 35.0547L275.471 33.608ZM271.44 25.064L274.153 23.7837L273.341 22.064H271.44V25.064ZM271.247 25.064V22.064H268.154L268.249 25.1563L271.247 25.064ZM271.632 37.544H274.632V37.4979L274.63 37.4517L271.632 37.544ZM271.632 65V68H274.632V65H271.632ZM254.543 65H251.543V68H254.543V65ZM254.543 1.64V-1.36H251.543V1.64H254.543ZM275.952 1.64L278.58 0.193316L277.725 -1.36H275.952V1.64ZM293.232 33.032L295.933 31.7269L295.898 31.6551L295.86 31.5853L293.232 33.032ZM297.359 41.576L294.658 42.8811L295.477 44.576H297.359V41.576ZM297.456 41.576V44.576H300.549L300.454 41.4837L297.456 41.576ZM297.072 29.096H294.072V29.1421L294.073 29.1883L297.072 29.096ZM297.072 1.64V-1.36H294.072V1.64H297.072ZM311.255 1.64V65H317.255V1.64H311.255ZM314.255 62H292.751V68H314.255V62ZM295.38 63.5533L278.1 32.1613L272.843 35.0547L290.123 66.4467L295.38 63.5533ZM278.185 32.3277L274.153 23.7837L268.726 26.3443L272.758 34.8883L278.185 32.3277ZM271.44 22.064H271.247V28.064H271.44V22.064ZM268.249 25.1563L268.633 37.6363L274.63 37.4517L274.246 24.9717L268.249 25.1563ZM268.632 37.544V65H274.632V37.544H268.632ZM271.632 62H254.543V68H271.632V62ZM257.543 65V1.64H251.543V65H257.543ZM254.543 4.64H275.952V-1.36H254.543V4.64ZM273.323 3.08668L290.603 34.4787L295.86 31.5853L278.58 0.193316L273.323 3.08668ZM290.53 34.3371L294.658 42.8811L300.061 40.2709L295.933 31.7269L290.53 34.3371ZM297.359 44.576H297.456V38.576H297.359V44.576ZM300.454 41.4837L300.07 29.0037L294.073 29.1883L294.457 41.6683L300.454 41.4837ZM300.072 29.096V1.64H294.072V29.096H300.072ZM297.072 4.64H314.255V-1.36H297.072V4.64ZM382.333 1.64H385.333V-1.36H382.333V1.64ZM382.333 16.328V19.328H385.333V16.328H382.333ZM362.173 16.328V13.328H359.173V16.328H362.173ZM362.173 65V68H365.173V65H362.173ZM342.589 65H339.589V68H342.589V65ZM342.589 16.328H345.589V13.328H342.589V16.328ZM322.237 16.328H319.237V19.328H322.237V16.328ZM322.237 1.64V-1.36H319.237V1.64H322.237ZM379.333 1.64V16.328H385.333V1.64H379.333ZM382.333 13.328H362.173V19.328H382.333V13.328ZM359.173 16.328V65H365.173V16.328H359.173ZM362.173 62H342.589V68H362.173V62ZM345.589 65V16.328H339.589V65H345.589ZM342.589 13.328H322.237V19.328H342.589V13.328ZM325.237 16.328V1.64H319.237V16.328H325.237ZM322.237 4.64H382.333V-1.36H322.237V4.64ZM441.075 7.112L439.131 9.39697L439.15 9.41253L439.168 9.42779L441.075 7.112ZM441.267 36.776L443.167 39.0979V39.0979L441.267 36.776ZM423.027 41.96V38.96H422.257L421.582 39.3314L423.027 41.96ZM421.107 43.016V46.016H421.878L422.553 45.6446L421.107 43.016ZM409.587 43.016V40.016H406.587V43.016H409.587ZM409.587 65V68H412.587V65H409.587ZM390.387 65H387.387V68H390.387V65ZM390.387 1.64V-1.36H387.387V1.64H390.387ZM425.811 28.136L427.629 30.5223L427.638 30.5161L427.646 30.5099L425.811 28.136ZM425.811 17.576L423.924 19.9077L423.95 19.9291L423.977 19.9499L425.811 17.576ZM409.587 15.944V12.944H406.587V15.944H409.587ZM409.587 29.672H406.587V32.672H409.587V29.672ZM431.283 33.8L433.81 32.1828L432.7 30.4481L430.682 30.8609L431.283 33.8ZM451.251 65V68H456.733L453.778 63.3828L451.251 65ZM429.843 65L427.223 66.46L428.08 68H429.843V65ZM414.387 37.256L413.786 34.3169L409.773 35.1377L411.766 38.716L414.387 37.256ZM422.835 4.64C430.276 4.64 435.567 6.36495 439.131 9.39697L443.019 4.82702C438.007 0.563046 431.138 -1.36 422.835 -1.36V4.64ZM439.168 9.42779C442.777 12.3996 444.603 16.3236 444.603 21.512H450.603C450.603 14.6684 448.078 8.99244 442.982 4.79621L439.168 9.42779ZM444.603 21.512C444.603 27.5606 442.736 31.6983 439.368 34.4541L443.167 39.0979C448.247 34.9417 450.603 28.9034 450.603 21.512H444.603ZM439.368 34.4541C435.876 37.3107 430.577 38.96 423.027 38.96V44.96C431.35 44.96 438.21 43.1533 443.167 39.0979L439.368 34.4541ZM421.582 39.3314L419.661 40.3874L422.553 45.6446L424.473 44.5886L421.582 39.3314ZM421.107 40.016H409.587V46.016H421.107V40.016ZM406.587 43.016V65H412.587V43.016H406.587ZM409.587 62H390.387V68H409.587V62ZM393.387 65V1.64H387.387V65H393.387ZM390.387 4.64H422.835V-1.36H390.387V4.64ZM419.667 32.672C422.696 32.672 425.525 32.1257 427.629 30.5223L423.993 25.7497C423.41 26.1943 422.143 26.672 419.667 26.672V32.672ZM427.646 30.5099C430.036 28.663 430.923 25.8528 430.923 22.856H424.923C424.923 24.7232 424.403 25.433 423.977 25.7621L427.646 30.5099ZM430.923 22.856C430.923 19.8592 430.036 17.049 427.646 15.2021L423.977 19.9499C424.403 20.279 424.923 20.9888 424.923 22.856H430.923ZM427.699 15.2443C425.585 13.5334 422.726 12.944 419.667 12.944V18.944C422.113 18.944 423.349 19.4426 423.924 19.9077L427.699 15.2443ZM419.667 12.944H409.587V18.944H419.667V12.944ZM406.587 15.944V29.672H412.587V15.944H406.587ZM409.587 32.672H419.667V26.672H409.587V32.672ZM428.756 35.4172L448.724 66.6172L453.778 63.3828L433.81 32.1828L428.756 35.4172ZM451.251 62H429.843V68H451.251V62ZM432.464 63.54L417.008 35.796L411.766 38.716L427.223 66.46L432.464 63.54ZM414.988 40.1951L431.884 36.7391L430.682 30.8609L413.786 34.3169L414.988 40.1951ZM517.515 65V68H521.695L520.357 64.0397L517.515 65ZM497.354 65L494.458 65.7822L495.057 68H497.354V65ZM493.802 51.848L496.699 51.0658L496.1 48.848H493.802V51.848ZM474.507 51.848V48.848H472.225L471.616 51.0462L474.507 51.848ZM470.858 65V68H473.14L473.749 65.8018L470.858 65ZM451.275 65L448.431 64.0436L447.1 68H451.275V65ZM472.586 1.64V-1.36H470.43L469.743 0.683563L472.586 1.64ZM496.107 1.64L498.949 0.679695L498.259 -1.36H496.107V1.64ZM477.771 39.176L474.876 38.3876L473.844 42.176H477.771V39.176ZM490.634 39.176V42.176H494.561L493.529 38.3876L490.634 39.176ZM484.203 15.56L487.097 14.7716L484.203 4.14384L481.308 14.7716L484.203 15.56ZM517.515 62H497.354V68H517.515V62ZM500.251 64.2178L496.699 51.0658L490.906 52.6302L494.458 65.7822L500.251 64.2178ZM493.802 48.848H474.507V54.848H493.802V48.848ZM471.616 51.0462L467.968 64.1982L473.749 65.8018L477.397 52.6498L471.616 51.0462ZM470.858 62H451.275V68H470.858V62ZM454.118 65.9564L475.43 2.59643L469.743 0.683563L448.431 64.0436L454.118 65.9564ZM472.586 4.64H496.107V-1.36H472.586V4.64ZM493.264 2.6003L514.672 65.9603L520.357 64.0397L498.949 0.679695L493.264 2.6003ZM477.771 42.176H490.634V36.176H477.771V42.176ZM493.529 38.3876L487.097 14.7716L481.308 16.3484L487.74 39.9644L493.529 38.3876ZM481.308 14.7716L474.876 38.3876L480.665 39.9644L487.097 16.3484L481.308 14.7716ZM542.628 50.312H539.628V53.312H542.628V50.312ZM572.771 50.312H575.771V47.312H572.771V50.312ZM572.771 65V68H575.771V65H572.771ZM523.044 65H520.044V68H523.044V65ZM523.044 1.64V-1.36H520.044V1.64H523.044ZM542.628 1.64H545.628V-1.36H542.628V1.64ZM542.628 53.312H572.771V47.312H542.628V53.312ZM569.771 50.312V65H575.771V50.312H569.771ZM572.771 62H523.044V68H572.771V62ZM526.044 65V1.64H520.044V65H526.044ZM523.044 4.64H542.628V-1.36H523.044V4.64ZM539.628 1.64V50.312H545.628V1.64H539.628ZM600.565 1.64H603.565V-1.36H600.565V1.64ZM600.565 65V68H603.565V65H600.565ZM580.981 65H577.981V68H580.981V65ZM580.981 1.64V-1.36H577.981V1.64H580.981ZM597.565 1.64V65H603.565V1.64H597.565ZM600.565 62H580.981V68H600.565V62ZM583.981 65V1.64H577.981V65H583.981ZM580.981 4.64H600.565V-1.36H580.981V4.64ZM624.39 57.224L621.738 58.6277L623.689 62.3117L626.562 59.2923L624.39 57.224ZM620.933 50.696V47.696H615.951L618.282 52.0997L620.933 50.696ZM665.286 50.696H668.286V47.696H665.286V50.696ZM665.286 65V68H668.286V65H665.286ZM609.414 65H606.414V68H609.414V65ZM609.414 51.272L607.243 49.201L606.414 50.0704V51.272H609.414ZM649.349 9.41599L652.017 8.04306L650.088 4.29592L647.179 7.34504L649.349 9.41599ZM652.709 15.944V18.944H657.628L655.377 14.5711L652.709 15.944ZM609.893 15.944H606.893V18.944H609.893V15.944ZM609.893 1.64V-1.36H606.893V1.64H609.893ZM664.229 1.64H667.229V-1.36H664.229V1.64ZM664.229 15.368L666.403 17.4363L667.229 16.5675V15.368H664.229ZM627.041 55.8203L623.585 49.2923L618.282 52.0997L621.738 58.6277L627.041 55.8203ZM620.933 53.696H665.286V47.696H620.933V53.696ZM662.286 50.696V65H668.286V50.696H662.286ZM665.286 62H609.414V68H665.286V62ZM612.414 65V51.272H606.414V65H612.414ZM611.584 53.343L651.52 11.4869L647.179 7.34504L607.243 49.201L611.584 53.343ZM646.682 10.7889L650.042 17.3169L655.377 14.5711L652.017 8.04306L646.682 10.7889ZM652.709 12.944H609.893V18.944H652.709V12.944ZM612.893 15.944V1.64H606.893V15.944H612.893ZM609.893 4.64H664.229V-1.36H609.893V4.64ZM661.229 1.64V15.368H667.229V1.64H661.229ZM662.057 13.2997L622.216 55.1557L626.562 59.2923L666.403 17.4363L662.057 13.2997ZM673.325 65H670.325V68H673.325V65ZM673.325 1.64V-1.36H670.325V1.64H673.325ZM724.397 1.64H727.397V-1.36H724.397V1.64ZM724.397 16.328V19.328H727.397V16.328H724.397ZM692.909 16.328V13.328H689.909V16.328H692.909ZM692.909 26.6H689.909V29.6H692.909V26.6ZM718.061 26.6H721.061V23.6H718.061V26.6ZM718.061 40.232V43.232H721.061V40.232H718.061ZM692.909 40.232V37.232H689.909V40.232H692.909ZM692.909 50.312H689.909V53.312H692.909V50.312ZM725.645 50.312H728.645V47.312H725.645V50.312ZM725.645 65V68H728.645V65H725.645ZM676.325 65V1.64H670.325V65H676.325ZM673.325 4.64H724.397V-1.36H673.325V4.64ZM721.397 1.64V16.328H727.397V1.64H721.397ZM724.397 13.328H692.909V19.328H724.397V13.328ZM689.909 16.328V26.6H695.909V16.328H689.909ZM692.909 29.6H718.061V23.6H692.909V29.6ZM715.061 26.6V40.232H721.061V26.6H715.061ZM718.061 37.232H692.909V43.232H718.061V37.232ZM689.909 40.232V50.312H695.909V40.232H689.909ZM692.909 53.312H725.645V47.312H692.909V53.312ZM722.645 50.312V65H728.645V50.312H722.645ZM725.645 62H673.325V68H725.645V62ZM785.35 9.896L783.166 11.9529V11.9529L785.35 9.896ZM785.35 56.744L787.534 58.8009L787.54 58.7946L787.546 58.7883L785.35 56.744ZM733.606 65H730.606V68H733.606V65ZM733.606 1.64V-1.36H730.606V1.64H733.606ZM770.182 46.472L772.687 48.1229L772.695 48.1101L772.704 48.0971L770.182 46.472ZM770.182 20.264L767.66 21.8891L767.669 21.9021L767.677 21.9149L770.182 20.264ZM753.19 15.944V12.944H750.19V15.944H753.19ZM753.19 50.696H750.19V53.696H753.19V50.696ZM762.694 4.64C772.058 4.64 778.711 7.22285 783.166 11.9529L787.534 7.83912C781.621 1.56114 773.17 -1.36 762.694 -1.36V4.64ZM783.166 11.9529C787.669 16.7341 790.126 23.7088 790.126 33.32H796.126C796.126 22.7072 793.399 14.0659 787.534 7.83911L783.166 11.9529ZM790.126 33.32C790.126 42.8589 787.673 49.846 783.154 54.6997L787.546 58.7883C793.395 52.506 796.126 43.8771 796.126 33.32H790.126ZM783.166 54.6871C778.711 59.4171 772.058 62 762.694 62V68C773.17 68 781.621 65.0789 787.534 58.8009L783.166 54.6871ZM762.694 62H733.606V68H762.694V62ZM736.606 65V1.64H730.606V65H736.606ZM733.606 4.64H762.694V-1.36H733.606V4.64ZM760.294 53.696C765.595 53.696 770.069 52.0945 772.687 48.1229L767.677 44.8211C766.583 46.4815 764.465 47.696 760.294 47.696V53.696ZM772.704 48.0971C775.024 44.4967 775.966 39.4184 775.966 33.32H769.966C769.966 38.9976 769.052 42.6873 767.66 44.8469L772.704 48.0971ZM775.966 33.32C775.966 27.2301 775.027 22.1638 772.687 18.6131L767.677 21.9149C769.049 23.9962 769.966 27.6339 769.966 33.32H775.966ZM772.704 18.6389C770.098 14.5948 765.621 12.944 760.294 12.944V18.944C764.439 18.944 766.555 20.1732 767.66 21.8891L772.704 18.6389ZM760.294 12.944H753.19V18.944H760.294V12.944ZM750.19 15.944V50.696H756.19V15.944H750.19ZM753.19 53.696H760.294V47.696H753.19V53.696Z" fill="white"/>
</svg>
